<svg width="1865" height="1155" xmlns="http://www.w3.org/2000/svg" xmlns:xlink="http://www.w3.org/1999/xlink" xml:space="preserve" overflow="hidden"><defs><clipPath id="clip0"><rect x="880" y="627" width="1865" height="1155"/></clipPath><clipPath id="clip1"><rect x="880" y="627" width="1865" height="1155"/></clipPath></defs><g clip-path="url(#clip0)" transform="translate(-880 -627)"><g clip-path="url(#clip1)"><path d="M1463 1677.5C1463 1623.65 1506.65 1580 1560.5 1580 1614.35 1580 1658 1623.65 1658 1677.5 1658 1731.35 1614.35 1775 1560.5 1775 1506.65 1775 1463 1731.35 1463 1677.5Z" stroke="#156082" stroke-width="13.75" stroke-linecap="butt" stroke-linejoin="miter" stroke-miterlimit="8" stroke-opacity="0.8" fill="none" fill-rule="evenodd"/><text fill="#000000" fill-opacity="1" font-family="Cambria Math,Cambria Math_MSFontService,sans-serif" font-style="normal" font-variant="normal" font-weight="400" font-stretch="normal" font-size="83" text-anchor="start" direction="ltr" writing-mode="lr-tb" unicode-bidi="normal" text-decoration="none" transform="matrix(1 0 0 1 1529.14 1711)">𝒳</text><path d="M2326 1677.5C2326 1623.65 2369.65 1580 2423.5 1580 2477.35 1580 2521 1623.65 2521 1677.5 2521 1731.35 2477.35 1775 2423.5 1775 2369.65 1775 2326 1731.35 2326 1677.5Z" stroke="#156082" stroke-width="13.75" stroke-linecap="butt" stroke-linejoin="miter" stroke-miterlimit="8" stroke-opacity="0.8" fill="none" fill-rule="evenodd"/><text fill="#000000" fill-opacity="1" font-family="Cambria Math,Cambria Math_MSFontService,sans-serif" font-style="normal" font-variant="normal" font-weight="400" font-stretch="normal" font-size="83" text-anchor="start" direction="ltr" writing-mode="lr-tb" unicode-bidi="normal" text-decoration="none" transform="matrix(1 0 0 1 2396.21 1711)">𝒴</text><path d="M888 762.5C888 708.652 931.652 665 985.5 665 1039.35 665 1083 708.652 1083 762.5 1083 816.348 1039.35 860 985.5 860 931.652 860 888 816.348 888 762.5Z" stroke="#E97132" stroke-width="13.75" stroke-linecap="butt" stroke-linejoin="miter" stroke-miterlimit="8" stroke-opacity="0.8" fill="none" fill-rule="evenodd"/><text fill="#E97132" fill-opacity="1" font-family="Cambria Math,Cambria Math_MSFontService,sans-serif" font-style="normal" font-variant="normal" font-weight="400" font-stretch="normal" font-size="83" text-anchor="start" direction="ltr" writing-mode="lr-tb" unicode-bidi="normal" text-decoration="none" transform="matrix(1 0 0 1 959.816 796)">𝒵</text><path d="M1302.5 1151.67C1302.5 1127.83 1321.83 1108.5 1345.67 1108.5L1779.33 1108.5C1803.17 1108.5 1822.5 1127.83 1822.5 1151.67L1822.5 1324.33C1822.5 1348.17 1803.17 1367.5 1779.33 1367.5L1345.67 1367.5C1321.83 1367.5 1302.5 1348.17 1302.5 1324.33Z" stroke="#042433" stroke-width="6.875" stroke-linecap="butt" stroke-linejoin="miter" stroke-miterlimit="8" stroke-opacity="1" fill="none" fill-rule="evenodd"/><path d="M2168.5 1151.67C2168.5 1127.83 2187.83 1108.5 2211.67 1108.5L2645.33 1108.5C2669.17 1108.5 2688.5 1127.83 2688.5 1151.67L2688.5 1324.33C2688.5 1348.17 2669.17 1367.5 2645.33 1367.5L2211.67 1367.5C2187.83 1367.5 2168.5 1348.17 2168.5 1324.33Z" stroke="#042433" stroke-width="6.875" stroke-linecap="butt" stroke-linejoin="miter" stroke-miterlimit="8" stroke-opacity="1" fill="none" fill-rule="evenodd"/><path d="M5.72899-0.0448561 6.99189 161.251-4.46609 161.341-5.72899 0.0448561ZM29.863 155.343 1.6666 212.857-27.4269 155.792Z" fill="#000000" fill-rule="nonzero" fill-opacity="1" transform="matrix(1 0 0 -1 1560.5 1580.36)"/><path d="M5.72899-0.0448561 6.99189 161.251-4.46609 161.341-5.72899 0.0448561ZM29.863 155.343 1.6666 212.857-27.4269 155.792Z" fill="#000000" fill-rule="nonzero" fill-opacity="1" transform="matrix(1 0 0 -1 2422.5 1580.36)"/><path d="M1305.5 678.834C1305.5 654.901 1324.9 635.5 1348.83 635.5L1781.17 635.5C1805.1 635.5 1824.5 654.901 1824.5 678.834L1824.5 852.166C1824.5 876.099 1805.1 895.5 1781.17 895.5L1348.83 895.5C1324.9 895.5 1305.5 876.099 1305.5 852.166Z" stroke="#042433" stroke-width="6.875" stroke-linecap="butt" stroke-linejoin="miter" stroke-miterlimit="8" stroke-opacity="1" fill="none" fill-rule="evenodd"/><path d="M5.72899-0.0448561 6.99189 161.251-4.46609 161.341-5.72899 0.0448561ZM29.863 155.343 1.6666 212.857-27.4269 155.792Z" fill="#000000" fill-rule="nonzero" fill-opacity="1" transform="matrix(1 0 0 -1 1565.5 1108.36)"/><text fill="#000000" fill-opacity="1" font-family="Cambria Math,Cambria Math_MSFontService,sans-serif" font-style="normal" font-variant="normal" font-weight="400" font-stretch="normal" font-size="83" text-anchor="start" direction="ltr" writing-mode="lr-tb" unicode-bidi="normal" text-decoration="none" transform="matrix(1 0 0 1 1392.44 1270)">𝒳</text><text fill="#000000" fill-opacity="1" font-family="Times New Roman,Times New Roman_MSFontService,sans-serif" font-style="normal" font-variant="normal" font-weight="400" font-stretch="normal" font-size="83" text-anchor="start" direction="ltr" writing-mode="lr-tb" unicode-bidi="normal" text-decoration="none" transform="matrix(1 0 0 1 1485.62 1270)">Encoder</text><path d="M0.0349333-5.72906 161.544-4.74425 161.474 6.71387-0.0349333 5.72906ZM155.955-27.6954 213.071 1.29921 155.606 29.5952Z" fill="#000000" fill-rule="nonzero" fill-opacity="1" transform="matrix(1 0 0 -1 1089.5 764.799)"/><text fill="#000000" fill-opacity="1" font-family="Cambria Math,Cambria Math_MSFontService,sans-serif" font-style="normal" font-variant="normal" font-weight="400" font-stretch="normal" font-size="83" text-anchor="start" direction="ltr" writing-mode="lr-tb" unicode-bidi="normal" text-decoration="none" transform="matrix(1 0 0 1 2258.51 1265)">𝒴</text><text fill="#000000" fill-opacity="1" font-family="Times New Roman,Times New Roman_MSFontService,sans-serif" font-style="normal" font-variant="normal" font-weight="400" font-stretch="normal" font-size="83" text-anchor="start" direction="ltr" writing-mode="lr-tb" unicode-bidi="normal" text-decoration="none" transform="matrix(1 0 0 1 2344.2 1265)">Encoder</text><text fill="#000000" fill-opacity="1" font-family="Times New Roman,Times New Roman_MSFontService,sans-serif" font-style="normal" font-variant="normal" font-weight="400" font-stretch="normal" font-size="83" text-anchor="start" direction="ltr" writing-mode="lr-tb" unicode-bidi="normal" text-decoration="none" transform="matrix(1 0 0 1 1411.57 795)">Predictor</text><path d="M1822.53 757.771 1868.37 758.032 1868.3 769.49 1822.47 769.229ZM1902.74 758.227 1948.57 758.488 1948.51 769.946 1902.67 769.685ZM1982.95 758.684 2028.78 758.944 2028.71 770.402 1982.88 770.142ZM2063.15 759.14 2108.99 759.401 2108.92 770.859 2063.09 770.598ZM2105.69 736.465 2162.81 765.436 2105.36 793.756Z" fill="#000000" fill-rule="nonzero" fill-opacity="1"/><path d="M5.72899-0.0448561 6.08784 45.7871-5.37014 45.8768-5.72899 0.0448561ZM6.35698 80.161 6.71583 125.993-4.74216 126.083-5.10101 80.2507ZM6.98496 160.367 6.99189 161.251-4.46609 161.341-4.47302 160.457ZM29.863 155.343 1.6666 212.857-27.4269 155.792Z" fill="#000000" fill-rule="nonzero" fill-opacity="1" transform="matrix(1 0 0 -1 2422.5 1108.36)"/><path d="M2162.5 678.835C2162.5 654.902 2181.9 635.5 2205.83 635.5L2639.17 635.5C2663.1 635.5 2682.5 654.902 2682.5 678.835L2682.5 852.166C2682.5 876.099 2663.1 895.501 2639.17 895.501L2205.83 895.501C2181.9 895.501 2162.5 876.099 2162.5 852.166Z" stroke="#FF0000" stroke-width="6.875" stroke-linecap="butt" stroke-linejoin="miter" stroke-miterlimit="8" stroke-opacity="1" fill="none" fill-rule="evenodd"/><text fill="#000000" fill-opacity="1" font-family="Cambria Math,Cambria Math_MSFontService,sans-serif" font-style="normal" font-variant="normal" font-weight="400" font-stretch="normal" font-size="83" text-anchor="start" direction="ltr" writing-mode="lr-tb" unicode-bidi="normal" text-decoration="none" transform="matrix(1 0 0 1 2478.09 1017)">s</text><text fill="#000000" fill-opacity="1" font-family="Cambria Math,Cambria Math_MSFontService,sans-serif" font-style="normal" font-variant="normal" font-weight="400" font-stretch="normal" font-size="60" text-anchor="start" direction="ltr" writing-mode="lr-tb" unicode-bidi="normal" text-decoration="none" transform="matrix(1 0 0 1 2513.61 1034)">𝒴</text><text fill="#000000" fill-opacity="1" font-family="Cambria Math,Cambria Math_MSFontService,sans-serif" font-style="normal" font-variant="normal" font-weight="400" font-stretch="normal" font-size="83" text-anchor="start" direction="ltr" writing-mode="lr-tb" unicode-bidi="normal" text-decoration="none" transform="matrix(1 0 0 1 1953.37 866)">s</text><path d="M19.8989-58.4404 33.6782-45.6743 31.4897-43.3643 17.1836-53.2124 16.7378-53.2124 2.18848-43.3643 0-45.6743 14.4683-58.4404Z" fill="#000000" fill-rule="nonzero" fill-opacity="1" transform="matrix(1 0 0 1 1954.4 866)"/><text fill="#000000" fill-opacity="0" font-family="Arial,Arial_MSFontService,sans-serif" font-size="15.0762" direction="ltr" writing-mode="lr-tb" y="-45.2488">ො</text><text fill="#000000" fill-opacity="1" font-family="Cambria Math,Cambria Math_MSFontService,sans-serif" font-style="normal" font-variant="normal" font-weight="400" font-stretch="normal" font-size="60" text-anchor="start" direction="ltr" writing-mode="lr-tb" unicode-bidi="normal" text-decoration="none" transform="matrix(1 0 0 1 1988.89 883)">𝒴</text><text fill="#000000" fill-opacity="1" font-family="Cambria Math,Cambria Math_MSFontService,sans-serif" font-style="normal" font-variant="normal" font-weight="400" font-stretch="normal" font-size="83" text-anchor="start" direction="ltr" writing-mode="lr-tb" unicode-bidi="normal" text-decoration="none" transform="matrix(1 0 0 1 2258.51 789)">𝒟</text><path d="M2563.63 714.862C2572.06 717.078 2578.56 722.819 2583.12 732.086 2587.69 741.354 2589.97 752.323 2589.97 764.995 2589.97 777.666 2587.69 788.636 2583.12 797.903 2578.56 807.17 2572.06 812.912 2563.63 815.127L2562.62 811.804C2569.16 809.345 2574.11 803.989 2577.47 795.735 2580.83 787.481 2582.52 777.247 2582.52 765.035 2582.52 752.796 2580.83 742.543 2577.47 734.275 2574.11 726.007 2569.16 720.644 2562.62 718.186ZM2354.58 714.862 2355.59 718.186C2349.05 720.644 2344.1 726.007 2340.74 734.275 2337.37 742.543 2335.69 752.796 2335.69 765.035 2335.69 777.247 2337.37 787.481 2340.74 795.735 2344.1 803.989 2349.05 809.345 2355.59 811.804L2354.58 815.127C2346.15 812.912 2339.65 807.17 2335.08 797.903 2330.52 788.636 2328.23 777.666 2328.23 764.995 2328.23 752.323 2330.52 741.354 2335.08 732.086 2339.65 722.819 2346.15 717.078 2354.58 714.862Z" fill="#000000" fill-rule="evenodd" fill-opacity="1"/><text fill="#000000" fill-opacity="1" font-family="Cambria Math,Cambria Math_MSFontService,sans-serif" font-style="normal" font-variant="normal" font-weight="400" font-stretch="normal" font-size="83" text-anchor="start" direction="ltr" writing-mode="lr-tb" unicode-bidi="normal" text-decoration="none" transform="matrix(1 0 0 1 2358 789)">s</text><path d="M19.8989-58.4404 33.6782-45.6743 31.4897-43.3643 17.1836-53.2124 16.7378-53.2124 2.18848-43.3643 0-45.6743 14.4683-58.4404Z" fill="#000000" fill-rule="nonzero" fill-opacity="1" transform="matrix(1 0 0 1 2359.03 789)"/><text fill="#000000" fill-opacity="0" font-family="Arial,Arial_MSFontService,sans-serif" font-size="15.0762" direction="ltr" writing-mode="lr-tb" y="-45.2488">ො</text><text fill="#000000" fill-opacity="1" font-family="Cambria Math,Cambria Math_MSFontService,sans-serif" font-style="normal" font-variant="normal" font-weight="400" font-stretch="normal" font-size="60" text-anchor="start" direction="ltr" writing-mode="lr-tb" unicode-bidi="normal" text-decoration="none" transform="matrix(1 0 0 1 2393.52 806)">𝒴</text><text fill="#000000" fill-opacity="1" font-family="Cambria Math,Cambria Math_MSFontService,sans-serif" font-style="normal" font-variant="normal" font-weight="400" font-stretch="normal" font-size="83" text-anchor="start" direction="ltr" writing-mode="lr-tb" unicode-bidi="normal" text-decoration="none" transform="matrix(1 0 0 1 2443.52 789)">,</text><text fill="#000000" fill-opacity="1" font-family="Cambria Math,Cambria Math_MSFontService,sans-serif" font-style="normal" font-variant="normal" font-weight="400" font-stretch="normal" font-size="83" text-anchor="start" direction="ltr" writing-mode="lr-tb" unicode-bidi="normal" text-decoration="none" transform="matrix(1 0 0 1 2474.46 789)">s</text><text fill="#000000" fill-opacity="1" font-family="Cambria Math,Cambria Math_MSFontService,sans-serif" font-style="normal" font-variant="normal" font-weight="400" font-stretch="normal" font-size="60" text-anchor="start" direction="ltr" writing-mode="lr-tb" unicode-bidi="normal" text-decoration="none" transform="matrix(1 0 0 1 2509.98 806)">𝒴</text></g></g></svg>